<?xml version="1.0" standalone="no"?>
<!DOCTYPE svg PUBLIC "-//W3C//DTD SVG 20010904//EN"
 "http://www.w3.org/TR/2001/REC-SVG-20010904/DTD/svg10.dtd">
<svg version="1.0" xmlns="http://www.w3.org/2000/svg"
 width="880.000000pt" height="601.000000pt" viewBox="0 0 880.000000 601.000000"
 preserveAspectRatio="xMidYMid meet">

<g transform="translate(0.000000,601.000000) scale(0.100000,-0.100000)"
fill="#176CB6" stroke="none">
<path d="M6362 5984 c-472 -84 -881 -354 -1145 -755 -96 -146 -189 -364 -231
-539 -46 -190 -46 -198 -46 -1782 l0 -1498 26 -16 c24 -16 33 -16 162 5 197
31 352 88 505 187 344 222 558 584 593 1002 l7 82 36 2 c20 0 128 2 241 3 113
1 215 5 228 9 l22 7 0 623 c0 591 -1 624 -18 639 -16 15 -50 17 -265 17 l-247
0 0 195 c0 180 2 199 24 260 29 80 65 134 125 187 57 50 100 72 178 92 106 28
195 16 306 -40 58 -30 135 -108 171 -173 51 -95 54 -130 51 -716 -3 -622 5
-865 35 -1015 67 -345 242 -667 493 -906 174 -167 311 -252 582 -364 164 -67
518 -127 582 -97 l23 10 0 628 c0 438 -3 630 -11 634 -6 4 -37 13 -70 21 -169
39 -299 170 -332 333 -7 31 -11 111 -9 179 l3 122 198 0 c140 0 200 3 209 12
9 9 12 165 12 639 0 588 -1 627 -17 634 -10 4 -112 8 -228 9 l-210 2 -15 70
c-72 311 -234 597 -472 831 -109 108 -145 137 -254 209 -367 241 -814 334
-1242 258z"/>
<path d="M17 5889 c-16 -9 -17 -100 -17 -1687 0 -1782 -1 -1734 46 -1937 20
-83 74 -226 117 -304 196 -362 554 -575 967 -575 161 1 283 24 415 79 90 38
95 66 27 150 -138 170 -221 361 -262 599 -20 116 -20 157 -20 1887 0 1594 -2
1769 -16 1783 -14 14 -84 16 -627 16 -397 -1 -618 -4 -630 -11z"/>
<path d="M1717 4610 c-63 -4 -90 -9 -97 -20 -6 -9 -10 -441 -10 -1115 0 -1206
0 -1188 60 -1368 89 -264 291 -491 551 -618 154 -75 351 -116 507 -105 105 7
218 27 289 51 79 26 244 111 300 154 28 22 53 37 56 35 3 -3 -1 -26 -8 -52
-41 -151 -143 -268 -298 -344 -150 -74 -244 -93 -457 -92 -194 0 -325 21 -455
73 -107 43 -158 61 -174 61 -47 0 -46 5 -45 -556 1 -291 4 -536 8 -545 8 -18
205 -88 321 -114 241 -55 257 -56 593 -52 362 4 412 10 631 83 169 56 299 118
421 199 395 262 623 645 691 1155 18 137 19 227 19 1641 l0 1496 -21 19 c-20
18 -47 19 -617 20 -480 0 -602 -2 -624 -13 l-28 -14 0 -864 c0 -948 2 -911
-59 -979 -52 -58 -162 -85 -232 -58 -42 17 -101 73 -120 117 -18 38 -19 90
-19 906 l0 866 -21 19 c-20 18 -44 19 -548 19 -289 0 -566 -2 -614 -5z"/>
</g>
</svg>
